<svg xmlns="http://www.w3.org/2000/svg" width="220" height="160" viewBox="0 0 220 160">
  <defs>
    <linearGradient id="g1" x1="0" y1="0" x2="1" y2="1">
      <stop offset="0" stop-color="#ff1a5b" stop-opacity=".55"></stop>
      <stop offset="1" stop-color="#00d1ff" stop-opacity=".25"></stop>
    </linearGradient>
    <filter id="s" x="-30%" y="-30%" width="160%" height="160%">
      <feDropShadow dx="0" dy="10" stdDeviation="10" flood-color="#000" flood-opacity=".45"></feDropShadow>
    </filter>
  </defs>
  <g filter="url(#s)">
    <rect x="18" y="18" width="184" height="124" rx="22" fill="rgba(10,14,26,.85)" stroke="rgba(255,255,255,.18)" stroke-width="2"></rect>
    <rect x="28" y="28" width="164" height="104" rx="18" fill="url(#g1)" opacity=".55"></rect>
    <rect x="40" y="40" width="140" height="46" rx="14" fill="rgba(255,255,255,.08)" stroke="rgba(255,255,255,.16)"></rect>
    <g opacity=".9">
      <rect x="48" y="48" width="36" height="30" rx="9" fill="rgba(255,210,106,.16)" stroke="rgba(255,210,106,.35)"></rect>
      <rect x="92" y="48" width="36" height="30" rx="9" fill="rgba(255,210,106,.16)" stroke="rgba(255,210,106,.35)"></rect>
      <rect x="136" y="48" width="36" height="30" rx="9" fill="rgba(255,210,106,.16)" stroke="rgba(255,210,106,.35)"></rect>
      <path d="M58 63h16" stroke="rgba(255,255,255,.65)" stroke-width="3" stroke-linecap="round"></path>
      <path d="M102 63h16" stroke="rgba(255,255,255,.65)" stroke-width="3" stroke-linecap="round"></path>
      <path d="M146 63h16" stroke="rgba(255,255,255,.65)" stroke-width="3" stroke-linecap="round"></path>
    </g>
    <rect x="50" y="96" width="120" height="22" rx="11" fill="rgba(255,255,255,.08)" stroke="rgba(255,255,255,.14)"></rect>
    <circle cx="178" cy="107" r="10" fill="rgba(0,209,255,.22)" stroke="rgba(0,209,255,.55)"></circle>
    <circle cx="178" cy="107" r="4" fill="rgba(255,255,255,.85)"></circle>
  </g>
</svg>
